<svg xmlns="http://www.w3.org/2000/svg" width="256" height="256" viewBox="0 0 256 256"><g>
<path fill="#fff8" d="M128 0a128 128 0 0 0-5.451.193c-30.66 29.323-67.16 52.582-107.594 67.92A128 128 0 0 0 .137 125.277c70.85-19.696 133.207-59.976 180.197-113.972A128 128 0 0 0 128 0zm88.951 36.148A413.69 413.69 0 0 1 6.998 169.265a128 128 0 0 0 26.104 44.41A463.57 463.57 0 0 0 228.467 97.228a463.758 463.758 0 0 0 17.525-18.53 128 128 0 0 0-29.04-42.549zm38.701 98.809A509.777 509.777 0 0 1 79.268 246.303 128 128 0 0 0 128 256a128 128 0 0 0 127.652-121.043z"/>
<path fill="#fffe" d="M128-.232A128.232 128.232 0 0 0 8.209 82.672C62.746 56.792 123.776 42.31 188.242 42.31c12.236 0 24.345.527 36.313 1.548A128.232 128.232 0 0 0 128-.232zm60.242 87.392c-68.496 0-132.75 18.46-188.06 50.658a128.232 128.232 0 0 0 14.16 49.434c50.258-31.822 109.883-50.244 173.9-50.244 22.935 0 45.305 2.368 66.885 6.863A128.232 128.232 0 0 0 256.232 128a128.232 128.232 0 0 0-5.091-35.56 376.024 376.024 0 0 0-62.899-5.28zm0 94.5c-53.538 0-103.623 15.107-146.232 41.266a128.232 128.232 0 0 0 51.972 28.568c28.756-12.848 60.65-19.994 94.26-19.994 4.888 0 9.736.17 14.547.467a128.232 128.232 0 0 0 39.027-45.147 280.478 280.478 0 0 0-53.574-5.16z"/>
</g></svg>
