<svg width="105" height="32" viewBox="0 0 105 32" fill="none" xmlns="http://www.w3.org/2000/svg">
<path d="M16 0C15.7727 0.00320101 15.5456 0.0112445 15.3186 0.024125C11.4861 3.6895 6.92362 6.59687 1.86937 8.51412C0.703449 10.719 0.0691528 13.166 0.0171204 15.6596C8.87337 13.1976 16.668 8.16262 22.5417 1.41313C20.4852 0.486193 18.2558 0.00461745 16 0V0ZM27.1189 4.5185C20.2837 12.6245 11.1218 18.4334 0.874745 21.1581C1.57497 23.2105 2.68512 25.0992 4.13775 26.7094C13.3604 23.9605 21.7532 18.958 28.5584 12.1535C29.3097 11.4016 30.0402 10.6293 30.749 9.83725C29.9119 7.83669 28.6769 6.02718 27.119 4.51862L27.1189 4.5185ZM31.9565 16.8696C25.645 22.9791 18.1386 27.7177 9.9085 30.7879C11.8403 31.5859 13.9098 31.9977 16 32C20.0895 31.9949 24.0218 30.4241 26.9893 27.6103C29.9568 24.7964 31.7342 20.9531 31.9565 16.8696V16.8696Z" fill="#1565C0"/>
<path d="M16.0009 -0.0289917C12.7483 -0.0248715 9.57397 0.968652 6.89944 2.81962C4.2249 4.67059 2.17676 7.29142 1.02703 10.334C7.84415 7.09901 15.4729 5.28876 23.5311 5.28876C25.0606 5.28876 26.5743 5.35463 28.0703 5.48226C26.5686 3.75524 24.7144 2.36983 22.6326 1.4192C20.5508 0.46857 18.2895 -0.0252314 16.0009 -0.0289917V-0.0289917ZM23.5311 10.895C14.9691 10.895 6.9374 13.2025 0.0236511 17.2273C0.190375 19.3854 0.792479 21.4874 1.79365 23.4065C8.0759 19.4288 15.529 17.126 23.5311 17.126C26.398 17.126 29.1943 17.422 31.8918 17.9839C31.9788 17.3261 32.025 16.6635 32.0299 16C32.0274 14.4958 31.8132 12.9995 31.3935 11.555C28.7959 11.115 26.1658 10.8943 23.5311 10.895V10.895ZM23.5311 22.7075C16.8389 22.7075 10.5783 24.5959 5.25215 27.8658C7.10886 29.5474 9.33386 30.7704 11.7487 31.4368C15.3431 29.8308 19.3299 28.9375 23.5311 28.9375C24.1421 28.9375 24.7481 28.9588 25.3495 28.9959C27.3968 27.5246 29.0682 25.5911 30.2279 23.3525C28.0215 22.9233 25.7789 22.7073 23.5311 22.7075V22.7075Z" fill="#2196F3"/>
<path d="M40.824 16.28C40.824 16.64 40.836 16.98 40.86 17.3C40.892 17.612 40.948 17.884 41.028 18.116C41.116 18.348 41.236 18.532 41.388 18.668C41.54 18.804 41.744 18.872 42 18.872C42.248 18.872 42.448 18.804 42.6 18.668C42.76 18.532 42.88 18.348 42.96 18.116C43.048 17.876 43.104 17.6 43.128 17.288C43.16 16.976 43.176 16.64 43.176 16.28C43.176 15.92 43.16 15.584 43.128 15.272C43.104 14.952 43.048 14.676 42.96 14.444C42.88 14.212 42.764 14.028 42.612 13.892C42.46 13.756 42.256 13.688 42 13.688C41.744 13.688 41.54 13.756 41.388 13.892C41.236 14.028 41.116 14.216 41.028 14.456C40.948 14.688 40.892 14.96 40.86 15.272C40.836 15.584 40.824 15.92 40.824 16.28ZM39.324 16.28C39.324 15 39.56 14.036 40.032 13.388C40.504 12.732 41.16 12.404 42 12.404C42.872 12.404 43.536 12.732 43.992 13.388C44.448 14.036 44.676 15 44.676 16.28C44.676 17.56 44.444 18.528 43.98 19.184C43.516 19.832 42.86 20.156 42.012 20.156C41.14 20.156 40.472 19.832 40.008 19.184C39.552 18.528 39.324 17.56 39.324 16.28ZM47.784 18.92C48.032 18.92 48.236 18.896 48.396 18.848C48.564 18.792 48.696 18.72 48.792 18.632C48.888 18.536 48.952 18.432 48.984 18.32C49.024 18.2 49.044 18.08 49.044 17.96C49.044 17.808 49 17.672 48.912 17.552C48.824 17.432 48.712 17.328 48.576 17.24C48.44 17.144 48.288 17.06 48.12 16.988C47.952 16.908 47.784 16.836 47.616 16.772C47.392 16.692 47.16 16.6 46.92 16.496C46.68 16.392 46.46 16.26 46.26 16.1C46.068 15.94 45.908 15.744 45.78 15.512C45.652 15.272 45.588 14.976 45.588 14.624C45.588 13.928 45.812 13.384 46.26 12.992C46.716 12.6 47.34 12.404 48.132 12.404C48.588 12.404 48.984 12.456 49.32 12.56C49.664 12.664 49.952 12.78 50.184 12.908L49.752 14.048C49.552 13.936 49.328 13.84 49.08 13.76C48.84 13.68 48.56 13.64 48.24 13.64C47.456 13.64 47.064 13.924 47.064 14.492C47.064 14.636 47.104 14.764 47.184 14.876C47.264 14.98 47.364 15.076 47.484 15.164C47.612 15.244 47.752 15.316 47.904 15.38C48.064 15.444 48.22 15.504 48.372 15.56C48.604 15.648 48.844 15.748 49.092 15.86C49.348 15.964 49.58 16.108 49.788 16.292C50.004 16.468 50.18 16.692 50.316 16.964C50.452 17.228 50.52 17.564 50.52 17.972C50.52 18.668 50.292 19.208 49.836 19.592C49.388 19.968 48.704 20.156 47.784 20.156C47.168 20.156 46.676 20.092 46.308 19.964C45.94 19.828 45.664 19.704 45.48 19.592L45.912 18.392C46.128 18.52 46.384 18.64 46.68 18.752C46.984 18.864 47.352 18.92 47.784 18.92ZM51.648 20V18.776H53.268V13.796H51.648V12.572H56.364V13.796H54.756V18.776H56.364V20H51.648ZM68.52 20H63.852V12.572H65.34V18.776H68.52V20ZM72.012 18.944C72.172 18.944 72.328 18.944 72.48 18.944C72.632 18.936 72.764 18.924 72.876 18.908V17.612C72.78 17.596 72.664 17.584 72.528 17.576C72.392 17.56 72.268 17.552 72.156 17.552C72.004 17.552 71.856 17.564 71.712 17.588C71.568 17.604 71.44 17.636 71.328 17.684C71.224 17.732 71.14 17.8 71.076 17.888C71.012 17.976 70.98 18.092 70.98 18.236C70.98 18.492 71.076 18.676 71.268 18.788C71.46 18.892 71.708 18.944 72.012 18.944ZM71.88 14.216C72.344 14.216 72.728 14.272 73.032 14.384C73.344 14.488 73.592 14.64 73.776 14.84C73.96 15.032 74.092 15.272 74.172 15.56C74.252 15.84 74.292 16.156 74.292 16.508V19.868C74.076 19.916 73.756 19.972 73.332 20.036C72.908 20.1 72.432 20.132 71.904 20.132C71.544 20.132 71.216 20.1 70.92 20.036C70.632 19.972 70.384 19.868 70.176 19.724C69.968 19.572 69.808 19.38 69.696 19.148C69.584 18.908 69.528 18.616 69.528 18.272C69.528 17.944 69.592 17.668 69.72 17.444C69.848 17.22 70.02 17.04 70.236 16.904C70.452 16.768 70.7 16.672 70.98 16.616C71.26 16.552 71.552 16.52 71.856 16.52C72.24 16.52 72.58 16.552 72.876 16.616V16.436C72.876 16.156 72.788 15.924 72.612 15.74C72.436 15.548 72.132 15.452 71.7 15.452C71.42 15.452 71.148 15.472 70.884 15.512C70.628 15.552 70.42 15.6 70.26 15.656L70.056 14.468C70.24 14.404 70.5 14.348 70.836 14.3C71.172 14.244 71.52 14.216 71.88 14.216ZM80.664 14.36C80.512 14.888 80.364 15.408 80.22 15.92C80.084 16.424 79.94 16.92 79.788 17.408C79.636 17.888 79.472 18.36 79.296 18.824C79.128 19.288 78.944 19.74 78.744 20.18C78.592 20.5 78.44 20.776 78.288 21.008C78.144 21.24 77.98 21.428 77.796 21.572C77.62 21.724 77.42 21.836 77.196 21.908C76.98 21.98 76.724 22.016 76.428 22.016C76.18 22.016 75.952 21.996 75.744 21.956C75.544 21.916 75.376 21.864 75.24 21.8L75.516 20.564C75.676 20.636 75.816 20.684 75.936 20.708C76.064 20.74 76.2 20.756 76.344 20.756C76.632 20.756 76.864 20.66 77.04 20.468C77.216 20.276 77.356 20.048 77.46 19.784C77.108 19.08 76.756 18.276 76.404 17.372C76.052 16.46 75.732 15.456 75.444 14.36H76.98C77.052 14.656 77.132 14.972 77.22 15.308C77.316 15.644 77.416 15.98 77.52 16.316C77.624 16.652 77.732 16.984 77.844 17.312C77.964 17.632 78.084 17.932 78.204 18.212C78.284 17.932 78.368 17.632 78.456 17.312C78.544 16.984 78.628 16.656 78.708 16.328C78.788 15.992 78.864 15.656 78.936 15.32C79.016 14.984 79.088 14.664 79.152 14.36H80.664ZM81.372 17.228C81.372 16.732 81.448 16.296 81.6 15.92C81.752 15.544 81.952 15.232 82.2 14.984C82.448 14.728 82.732 14.536 83.052 14.408C83.372 14.28 83.7 14.216 84.036 14.216C84.868 14.216 85.5 14.464 85.932 14.96C86.364 15.448 86.58 16.164 86.58 17.108C86.58 17.204 86.576 17.304 86.568 17.408C86.568 17.512 86.564 17.596 86.556 17.66H82.896C82.896 18.028 83.048 18.32 83.352 18.536C83.656 18.744 84.048 18.848 84.528 18.848C84.824 18.848 85.104 18.816 85.368 18.752C85.64 18.688 85.868 18.624 86.052 18.56L86.256 19.82C86 19.908 85.728 19.98 85.44 20.036C85.152 20.1 84.828 20.132 84.468 20.132C83.988 20.132 83.556 20.072 83.172 19.952C82.796 19.824 82.472 19.64 82.2 19.4C81.936 19.152 81.732 18.848 81.588 18.488C81.444 18.128 81.372 17.708 81.372 17.228ZM85.152 16.64C85.152 16.488 85.132 16.344 85.092 16.208C85.052 16.064 84.988 15.936 84.9 15.824C84.812 15.712 84.7 15.624 84.564 15.56C84.428 15.488 84.26 15.452 84.06 15.452C83.868 15.452 83.7 15.484 83.556 15.548C83.42 15.612 83.304 15.7 83.208 15.812C83.12 15.924 83.048 16.052 82.992 16.196C82.944 16.34 82.912 16.488 82.896 16.64H85.152ZM92.244 15.86C92.148 15.836 92.032 15.812 91.896 15.788C91.768 15.764 91.636 15.744 91.5 15.728C91.364 15.704 91.232 15.688 91.104 15.68C90.976 15.672 90.868 15.668 90.78 15.668C90.572 15.668 90.368 15.68 90.168 15.704C89.968 15.72 89.764 15.756 89.556 15.812V20H88.068V14.732C88.46 14.588 88.86 14.472 89.268 14.384C89.684 14.296 90.168 14.252 90.72 14.252C90.8 14.252 90.912 14.256 91.056 14.264C91.208 14.272 91.368 14.288 91.536 14.312C91.704 14.328 91.872 14.352 92.04 14.384C92.216 14.408 92.372 14.444 92.508 14.492L92.244 15.86ZM104.352 14.336C104.352 14.68 104.268 15.02 104.1 15.356C103.932 15.684 103.668 15.96 103.308 16.184C103.764 16.448 104.084 16.736 104.268 17.048C104.46 17.36 104.556 17.704 104.556 18.08C104.556 18.32 104.508 18.564 104.412 18.812C104.324 19.06 104.176 19.284 103.968 19.484C103.768 19.676 103.504 19.836 103.176 19.964C102.848 20.092 102.444 20.156 101.964 20.156C101.588 20.156 101.244 20.108 100.932 20.012C100.628 19.924 100.364 19.796 100.14 19.628C99.924 19.452 99.756 19.24 99.636 18.992C99.516 18.736 99.456 18.452 99.456 18.14C99.456 17.764 99.544 17.412 99.72 17.084C99.896 16.748 100.172 16.452 100.548 16.196C100.196 15.956 99.956 15.7 99.828 15.428C99.7 15.156 99.636 14.868 99.636 14.564C99.636 14.324 99.676 14.076 99.756 13.82C99.844 13.556 99.98 13.32 100.164 13.112C100.348 12.904 100.592 12.732 100.896 12.596C101.2 12.46 101.576 12.392 102.024 12.392C102.736 12.392 103.3 12.568 103.716 12.92C104.14 13.272 104.352 13.744 104.352 14.336ZM103.164 18.056C103.164 17.896 103.132 17.756 103.068 17.636C103.012 17.516 102.916 17.408 102.78 17.312C102.652 17.208 102.484 17.108 102.276 17.012C102.068 16.908 101.82 16.8 101.532 16.688C101.308 16.872 101.136 17.08 101.016 17.312C100.896 17.536 100.836 17.752 100.836 17.96C100.836 18.28 100.948 18.524 101.172 18.692C101.404 18.852 101.676 18.932 101.988 18.932C102.348 18.932 102.632 18.848 102.84 18.68C103.056 18.504 103.164 18.296 103.164 18.056ZM102 13.616C101.744 13.616 101.516 13.688 101.316 13.832C101.124 13.976 101.028 14.188 101.028 14.468C101.028 14.748 101.12 14.976 101.304 15.152C101.488 15.328 101.812 15.512 102.276 15.704C102.524 15.52 102.7 15.32 102.804 15.104C102.908 14.88 102.96 14.664 102.96 14.456C102.96 14.176 102.864 13.968 102.672 13.832C102.488 13.688 102.264 13.616 102 13.616Z" fill="black"/>
</svg>
